#!OML:ASF F:\VICON\USERDATA\INSTALL\rory3\rory3.ASF
:FULLY-SPECIFIED
:DEGREES
4537
root -2.78314 14.4736 -14.9813 -546.74 -54.4622 542.06
lowerback 21.0992 5.97173 -4.96881
upperback 1.20853 6.39108 -0.670982
thorax -10.9396 3.12675 0.145374
lowerneck -10.9326 -8.57891 -3.88661
upperneck 16.9158 -13.5998 10.6176
head 8.05441 -5.98065 2.63404
rclavicle -1.70955e-014 1.82882e-014
rhumerus 45.9438 59.4266 -48.0738
rradius 59.7898
rwrist -87.6027
rhand -6.42642 3.90358
rfingers 7.12502
rthumb 19.4224 -25.1464
lclavicle -1.70955e-014 1.82882e-014
lhumerus 17.1775 -35.3158 58.6643
lradius 124.608
lwrist -12.2278
lhand -9.15242 11.5761
lfingers 7.12502
lthumb 16.7997 40.8693
rfemur -22.6391 -22.2246 -1.98847
rtibia 51.6954
rfoot -11.8481 -12.6863
rtoes -16.0977
lfemur -32.2314 26.4539 -5.64438
ltibia 67.501
lfoot -19.2554 -2.57423
ltoes 1.36371
4538
root -2.76447 14.4759 -15.0163 -546.685 -54.5213 541.867
lowerback 21.1578 5.98285 -5.03347
upperback 1.1903 6.37796 -0.727468
thorax -10.9923 3.1213 0.116758
lowerneck -10.9934 -8.62497 -4.0456
upperneck 17.0569 -13.6967 10.7785
head 8.14378 -6.01714 2.69432
rclavicle -1.68967e-014 2.22639e-014
rhumerus 45.8942 59.2764 -48.1115
rradius 59.7363
rwrist -87.3975
rhand -6.31191 3.86677
rfingers 7.12502
rthumb 19.5325 -25.1721
lclavicle -1.68967e-014 2.22639e-014
lhumerus 17.0809 -35.5312 58.7606
lradius 124.622
lwrist -12.4168
lhand -9.65179 11.6067
lfingers 7.12502
lthumb 16.3189 40.9401
rfemur -22.5638 -22.1656 -2.02917
rtibia 51.8485
rfoot -12.1369 -12.6877
rtoes -15.3555
lfemur -32.0147 26.3894 -5.58405
ltibia 67.3409
lfoot -19.1309 -2.21674
ltoes -1.0861
4539
root -2.73722 14.4792 -15.0214 -546.612 -54.5256 542.053
lowerback 21.1744 5.91756 -4.63943
upperback 1.10814 6.39239 -0.724175
thorax -11.0503 3.11316 -0.10906
lowerneck -11.1496 -8.72854 -4.2076
upperneck 17.0964 -13.7948 10.7267
head 8.20014 -6.0666 2.68308
rclavicle -1.46504e-013 3.81667e-014
rhumerus 45.9747 59.0142 -47.8707
rradius 59.7366
rwrist -87.2363
rhand -5.78289 3.48227
rfingers 7.12502
rthumb 20.0411 -25.5042
lclavicle -1.46504e-013 3.81667e-014
lhumerus 17.0568 -35.5667 58.9754
lradius 124.533
lwrist -12.7343
lhand -10.2683 11.2405
lfingers 7.12502
lthumb 15.7252 40.6216
rfemur -22.9744 -22.2891 -1.69577
rtibia 51.9764
rfoot -12.0201 -12.824
rtoes -15.905
lfemur -32.3676 26.2381 -5.57122
ltibia 67.2817
lfoot -18.9885 -1.80104
ltoes -2.47571
4540
root -2.70787 14.4851 -15.0181 -546.716 -54.3232 542.559
lowerback 21.121 5.80999 -4.14677
upperback 0.979753 6.39086 -0.663265
thorax -11.1169 3.09705 -0.31818
lowerneck -10.887 -8.66913 -3.76628
upperneck 16.733 -13.619 10.217
head 7.94714 -6.0189 2.48839
rclavicle -2.47487e-014 7.95139e-015
rhumerus 46.4216 58.943 -47.4286
rradius 59.7334
rwrist -87.2057
rhand -5.38024 3.19333
rfingers 7.12502
rthumb 20.428 -25.7521
lclavicle -2.47487e-014 7.95139e-015
lhumerus 16.8316 -35.4359 59.138
lradius 124.53
lwrist -12.7993
lhand -10.7185 11.0094
lfingers 7.12502
lthumb 15.2916 40.4241
rfemur -23.595 -22.2697 -1.03408
rtibia 52.0836
rfoot -11.9145 -12.9581
rtoes -16.7722
lfemur -32.7871 26.3967 -5.29842
ltibia 67.2639
lfoot -18.7144 -1.43234
ltoes -2.44675
4541
root -2.68445 14.4937 -15.0355 -546.895 -54.1528 542.984
lowerback 21.034 5.75519 -3.92066
upperback 0.865111 6.39738 -0.58192
thorax -11.1827 3.09739 -0.356254
lowerneck -10.5943 -8.62455 -3.72062
upperneck 16.5497 -13.5453 10.2113
head 7.8247 -6.00068 2.50365
rclavicle -1.38155e-014 -1.59028e-014
rhumerus 46.5783 59.0218 -47.3766
rradius 59.6601
rwrist -86.796
rhand -5.73229 3.7132
rfingers 7.12502
rthumb 20.0897 -25.2681
lclavicle -1.38155e-014 -1.59028e-014
lhumerus 16.5723 -35.4265 59.3343
lradius 124.628
lwrist -12.499
lhand -10.5441 11.0179
lfingers 7.12502
lthumb 15.4596 40.4197
rfemur -23.9557 -22.2478 -0.47027
rtibia 52.1813
rfoot -11.943 -13.0346
rtoes -16.3513
lfemur -32.9263 26.6935 -4.88681
ltibia 67.2153
lfoot -18.4315 -1.43279
ltoes -1.246
4542
root -2.66722 14.4979 -15.0628 -546.629 -54.2195 542.64
lowerback 20.8454 5.73901 -4.15407
upperback 0.962719 6.33325 -0.54336
thorax -10.9967 3.08012 -0.141216
lowerneck -10.9424 -8.61393 -4.35088
upperneck 16.9265 -13.5773 10.6988
head 8.09524 -5.9874 2.73512
rclavicle -8.05078e-015 -7.15625e-015
rhumerus 47.0331 58.929 -46.8452
rradius 59.6751
rwrist -86.5809
rhand -6.43835 4.33982
rfingers 7.12502
rthumb 19.4109 -24.7113
lclavicle -8.05078e-015 -7.15625e-015
lhumerus 16.5863 -35.3219 59.5564
lradius 124.842
lwrist -12.1074
lhand -10.036 11.5462
lfingers 7.12502
lthumb 15.949 40.9095
rfemur -23.9936 -22.4662 -0.616959
rtibia 52.347
rfoot -11.9581 -12.8887
rtoes -16.209
lfemur -32.8219 26.6255 -5.00018
ltibia 67.0643
lfoot -18.469 -1.64774
ltoes -2.58885
4543
root -2.65338 14.5012 -15.0871 -546.275 -54.293 542.227
lowerback 20.736 5.69694 -4.2249
upperback 0.981685 6.25593 -0.631883
thorax -10.9088 3.04498 -0.163832
lowerneck -11.2824 -8.59509 -4.66115
upperneck 17.3087 -13.618 11.0009
head 8.33293 -5.97576 2.85852
rclavicle -1.90833e-014 2.22639e-014
rhumerus 47.4284 58.614 -46.2379
rradius 59.866
rwrist -86.9276
rhand -6.62191 4.30554
rfingers 7.12502
rthumb 19.2344 -24.7633
lclavicle -1.90833e-014 2.22639e-014
lhumerus 16.5538 -35.3528 59.649
lradius 124.89
lwrist -12.2634
lhand -9.84385 11.7815
lfingers 7.12502
lthumb 16.134 41.1299
rfemur -24.0635 -22.704 -0.820897
rtibia 52.563
rfoot -12.0311 -12.7653
rtoes -16.5835
lfemur -32.6943 26.3921 -5.17753
ltibia 66.8618
lfoot -18.4958 -1.90822
ltoes -2.80714
4544
root -2.63705 14.5011 -15.111 -545.99 -54.3125 541.906
lowerback 20.8572 5.68848 -4.08674
upperback 0.846794 6.25151 -0.809843
thorax -11.0912 3.03193 -0.453871
lowerneck -11.1201 -8.68658 -4.77972
upperneck 17.303 -13.7782 11.1843
head 8.33845 -6.05317 2.92259
rclavicle -1.49089e-013 4.37326e-014
rhumerus 46.8827 58.2668 -46.8521
rradius 59.7576
rwrist -87.0396
rhand -5.94448 3.75404
rfingers 7.12502
rthumb 19.8857 -25.2486
lclavicle -1.49089e-013 4.37326e-014
lhumerus 16.4498 -35.6933 59.6702
lradius 124.832
lwrist -12.4912
lhand -10.123 11.8591
lfingers 7.12502
lthumb 15.8652 41.2292
rfemur -24.221 -22.8087 -0.930022
rtibia 52.862
rfoot -12.2324 -12.6206
rtoes -16.738
lfemur -32.5272 26.2162 -5.21958
ltibia 66.6171
lfoot -18.3395 -2.48469
ltoes 0.536815
4545
root -2.61388 14.5019 -15.1366 -545.646 -54.3388 541.41
lowerback 20.9629 5.69518 -4.3194
upperback 0.838204 6.18458 -0.892584
thorax -11.1733 3.00719 -0.405106
lowerneck -11.091 -8.75316 -4.91482
upperneck 17.3339 -13.8864 11.3141
head 8.37308 -6.10314 2.97267
rclavicle -1.12115e-013 -1.43125e-014
rhumerus 46.6949 58.1789 -47.3475
rradius 59.5315
rwrist -86.6864
rhand -5.72122 3.51661
rfingers 7.12502
rthumb 20.1003 -25.4636
lclavicle -1.12115e-013 -1.43125e-014
lhumerus 16.3802 -35.7592 59.805
lradius 124.7
lwrist -12.4856
lhand -10.4202 11.5782
lfingers 7.12502
lthumb 15.579 40.9708
rfemur -24.3898 -22.8448 -1.14793
rtibia 53.2637
rfoot -12.3792 -12.5436
rtoes -17.0182
lfemur -32.2419 26.0461 -5.34277
ltibia 66.2507
lfoot -18.077 -3.07811
ltoes 3.73469
4546
root -2.59922 14.5058 -15.1674 -544.526 -54.6341 539.977
lowerback 20.6205 5.66944 -5.32824
upperback 1.03706 5.91591 -0.963686
thorax -10.8481 2.92347 0.202643
lowerneck -11.2815 -8.65181 -4.64893
upperneck 17.3611 -13.6992 10.948
head 8.35228 -6.01707 2.82819
rclavicle 4.28381e-014 2.38542e-014
rhumerus 47.5898 58.1447 -46.374
rradius 59.6809
rwrist -86.5913
rhand -6.10803 3.60541
rfingers 7.12502
rthumb 19.7285 -25.4134
lclavicle 4.28381e-014 2.38542e-014
lhumerus 16.3033 -35.5292 60.0206
lradius 124.626
lwrist -12.4232
lhand -10.8467 11.3744
lfingers 7.12502
lthumb 15.1681 40.7985
rfemur -24.3346 -23.3758 -2.16444
rtibia 53.58
rfoot -12.4096 -12.1889
rtoes -17.7211
lfemur -31.9738 25.6424 -6.19401
ltibia 65.8874
lfoot -17.8792 -3.019
ltoes 5.38975
4547
root -2.59877 14.497 -15.2131 -542.099 -55.3265 536.82
lowerback 20.2157 5.68291 -7.22114
upperback 1.30842 5.46609 -1.30762
thorax -10.4452 2.77143 1.06372
lowerneck -11.4345 -8.58166 -4.45043
upperneck 17.2932 -13.5493 10.6676
head 8.30862 -5.95011 2.71971
rclavicle -6.55989e-014 -1.43125e-014
rhumerus 48.2979 57.9289 -45.3789
rradius 59.9443
rwrist -86.7903
rhand -6.44674 3.67604
rfingers 7.12502
rthumb 19.4029 -25.3759
lclavicle -6.55989e-014 -1.43125e-014
lhumerus 16.3087 -35.402 60.2121
lradius 124.635
lwrist -12.3533
lhand -10.9681 11.3113
lfingers 7.12502
lthumb 15.0513 40.7442
rfemur -23.8715 -24.7033 -4.65253
rtibia 53.9586
rfoot -12.1742 -11.3524
rtoes -18.518
lfemur -31.4948 24.8855 -8.1991
ltibia 65.4063
lfoot -17.8316 -2.53942
ltoes 5.58143
4548
root -2.56071 14.5128 -15.2252 -544.479 -54.6355 539.867
lowerback 20.4229 5.67839 -5.40432
upperback 1.14155 5.93324 -0.890646
thorax -10.6384 2.93559 0.343154
lowerneck -11.3876 -8.66356 -4.60036
upperneck 17.2036 -13.64 10.7522
head 8.2947 -5.99872 2.76152
rclavicle -5.07895e-014 3.65764e-014
rhumerus 48.2603 57.6188 -45.2395
rradius 59.9849
rwrist -86.9136
rhand -6.38964 3.67283
rfingers 7.12502
rthumb 19.4578 -25.3736
lclavicle -5.07895e-014 3.65764e-014
lhumerus 16.3733 -35.5626 60.2959
lradius 124.638
lwrist -12.4982
lhand -10.9094 11.3551
lfingers 7.12502
lthumb 15.1078 40.7838
rfemur -24.4661 -23.4348 -1.97513
rtibia 53.969
rfoot -12.7087 -12.1475
rtoes -16.6286
lfemur -31.6805 25.6468 -5.93885
ltibia 65.4925
lfoot -17.4884 -2.49507
ltoes 4.75029
